<svg width="48" height="66" viewBox="0 0 48 66" fill="none" xmlns="http://www.w3.org/2000/svg">
<path fill-rule="evenodd" clip-rule="evenodd" d="M14.5001 13.2622V10.9222C14.5004 10.0842 14.8013 9.2742 15.3481 8.63928C15.8949 8.00436 16.6514 7.5867 17.4801 7.4622L19.9201 7.0962C22.6251 6.69189 25.3751 6.69189 28.0801 7.0962L30.5201 7.4622C31.3487 7.5867 32.1052 8.00436 32.6521 8.63928C33.1989 9.2742 33.4998 10.0842 33.5001 10.9222V13.2622L36.9281 13.5382C38.2035 13.6412 39.4075 14.1689 40.3476 15.0369C41.2878 15.9049 41.9097 17.0631 42.1141 18.3262C43.0455 24.0714 43.0455 29.929 42.1141 35.6742C41.9097 36.9373 41.2878 38.0955 40.3476 38.9635C39.4075 39.8315 38.2035 40.3592 36.9281 40.4622L33.1841 40.7622C27.0714 41.2563 20.9288 41.2563 14.8161 40.7622L11.0721 40.4622C9.79668 40.3592 8.59265 39.8315 7.65251 38.9635C6.71237 38.0955 6.09041 36.9373 5.88608 35.6742C4.95464 29.929 4.95464 24.0714 5.88608 18.3262C6.09082 17.0634 6.71296 15.9057 7.65306 15.0381C8.59316 14.1705 9.79697 13.6431 11.0721 13.5402L14.5001 13.2622ZM20.3661 10.0622C22.7754 9.70234 25.2248 9.70234 27.6341 10.0622L30.0741 10.4282C30.1925 10.4459 30.3006 10.5055 30.3787 10.5962C30.4569 10.6868 30.5 10.8025 30.5001 10.9222V13.0522C26.1703 12.8049 21.8299 12.8049 17.5001 13.0522V10.9202C17.5002 10.8005 17.5433 10.6848 17.6214 10.5942C17.6996 10.5035 17.8077 10.4439 17.9261 10.4262L20.3661 10.0622ZM15.0581 16.2262C21.0101 15.7462 26.9901 15.7462 32.9421 16.2262L36.6861 16.5302C37.2928 16.5787 37.8657 16.8294 38.3131 17.242C38.7606 17.6546 39.0567 18.2054 39.1541 18.8062C39.2781 19.5755 39.3847 20.3475 39.4741 21.1222C34.6599 23.4918 29.3658 24.7241 24.0001 24.7241C18.6343 24.7241 13.3403 23.4918 8.52608 21.1222C8.61408 20.3489 8.72075 19.5769 8.84608 18.8062C8.9435 18.2054 9.23961 17.6546 9.68704 17.242C10.1345 16.8294 10.7074 16.5787 11.3141 16.5302L15.0581 16.2262ZM8.25808 24.3142C13.2018 26.5615 18.5695 27.7243 24.0001 27.7243C29.4307 27.7243 34.7983 26.5615 39.7421 24.3142C39.9336 27.9515 39.7365 31.5988 39.1541 35.1942C39.0571 35.7954 38.7611 36.3466 38.3137 36.7596C37.8662 37.1726 37.2931 37.4236 36.6861 37.4722L32.9421 37.7722C26.9901 38.2522 21.0101 38.2522 15.0581 37.7722L11.3141 37.4722C10.7071 37.4236 10.134 37.1726 9.68649 36.7596C9.23902 36.3466 8.94309 35.7954 8.84608 35.1942C8.26408 31.5942 8.06608 27.9462 8.25808 24.3142Z" fill="#4D4D4D"/>
<path d="M15.024 52.576V58.312C15.024 59.2 14.772 59.884 14.268 60.364C13.772 60.844 13.1 61.084 12.252 61.084C11.364 61.084 10.652 60.832 10.116 60.328C9.58 59.824 9.312 59.108 9.312 58.18H11.352C11.352 58.532 11.424 58.8 11.568 58.984C11.712 59.16 11.92 59.248 12.192 59.248C12.44 59.248 12.632 59.168 12.768 59.008C12.904 58.848 12.972 58.616 12.972 58.312V52.576H15.024ZM19.7295 61.096C19.0735 61.096 18.4815 60.956 17.9535 60.676C17.4335 60.396 17.0215 59.996 16.7175 59.476C16.4215 58.956 16.2735 58.348 16.2735 57.652C16.2735 56.964 16.4255 56.36 16.7295 55.84C17.0335 55.312 17.4495 54.908 17.9775 54.628C18.5055 54.348 19.0975 54.208 19.7535 54.208C20.4095 54.208 21.0015 54.348 21.5295 54.628C22.0575 54.908 22.4735 55.312 22.7775 55.84C23.0815 56.36 23.2335 56.964 23.2335 57.652C23.2335 58.34 23.0775 58.948 22.7655 59.476C22.4615 59.996 22.0415 60.396 21.5055 60.676C20.9775 60.956 20.3855 61.096 19.7295 61.096ZM19.7295 59.32C20.1215 59.32 20.4535 59.176 20.7255 58.888C21.0055 58.6 21.1455 58.188 21.1455 57.652C21.1455 57.116 21.0095 56.704 20.7375 56.416C20.4735 56.128 20.1455 55.984 19.7535 55.984C19.3535 55.984 19.0215 56.128 18.7575 56.416C18.4935 56.696 18.3615 57.108 18.3615 57.652C18.3615 58.188 18.4895 58.6 18.7455 58.888C19.0095 59.176 19.3375 59.32 19.7295 59.32ZM26.3741 55.252C26.5661 54.94 26.8421 54.688 27.2021 54.496C27.5621 54.304 27.9741 54.208 28.4381 54.208C28.9901 54.208 29.4901 54.348 29.9381 54.628C30.3861 54.908 30.7381 55.308 30.9941 55.828C31.2581 56.348 31.3901 56.952 31.3901 57.64C31.3901 58.328 31.2581 58.936 30.9941 59.464C30.7381 59.984 30.3861 60.388 29.9381 60.676C29.4901 60.956 28.9901 61.096 28.4381 61.096C27.9661 61.096 27.5541 61.004 27.2021 60.82C26.8501 60.628 26.5741 60.376 26.3741 60.064V61H24.3221V52.12H26.3741V55.252ZM29.3021 57.64C29.3021 57.128 29.1581 56.728 28.8701 56.44C28.5901 56.144 28.2421 55.996 27.8261 55.996C27.4181 55.996 27.0701 56.144 26.7821 56.44C26.5021 56.736 26.3621 57.14 26.3621 57.652C26.3621 58.164 26.5021 58.568 26.7821 58.864C27.0701 59.16 27.4181 59.308 27.8261 59.308C28.2341 59.308 28.5821 59.16 28.8701 58.864C29.1581 58.56 29.3021 58.152 29.3021 57.64ZM35.1907 61.096C34.6067 61.096 34.0867 60.996 33.6307 60.796C33.1747 60.596 32.8147 60.324 32.5507 59.98C32.2867 59.628 32.1387 59.236 32.1067 58.804H34.1347C34.1587 59.036 34.2667 59.224 34.4587 59.368C34.6507 59.512 34.8867 59.584 35.1667 59.584C35.4227 59.584 35.6187 59.536 35.7547 59.44C35.8987 59.336 35.9707 59.204 35.9707 59.044C35.9707 58.852 35.8707 58.712 35.6707 58.624C35.4707 58.528 35.1467 58.424 34.6987 58.312C34.2187 58.2 33.8187 58.084 33.4987 57.964C33.1787 57.836 32.9027 57.64 32.6707 57.376C32.4387 57.104 32.3227 56.74 32.3227 56.284C32.3227 55.9 32.4267 55.552 32.6347 55.24C32.8507 54.92 33.1627 54.668 33.5707 54.484C33.9867 54.3 34.4787 54.208 35.0467 54.208C35.8867 54.208 36.5467 54.416 37.0267 54.832C37.5147 55.248 37.7947 55.8 37.8667 56.488H35.9707C35.9387 56.256 35.8347 56.072 35.6587 55.936C35.4907 55.8 35.2667 55.732 34.9867 55.732C34.7467 55.732 34.5627 55.78 34.4347 55.876C34.3067 55.964 34.2427 56.088 34.2427 56.248C34.2427 56.44 34.3427 56.584 34.5427 56.68C34.7507 56.776 35.0707 56.872 35.5027 56.968C35.9987 57.096 36.4027 57.224 36.7147 57.352C37.0267 57.472 37.2987 57.672 37.5307 57.952C37.7707 58.224 37.8947 58.592 37.9027 59.056C37.9027 59.448 37.7907 59.8 37.5667 60.112C37.3507 60.416 37.0347 60.656 36.6187 60.832C36.2107 61.008 35.7347 61.096 35.1907 61.096Z" fill="#4D4D4D"/>
</svg>
