<svg width="48" height="66" viewBox="0 0 48 66" fill="none" xmlns="http://www.w3.org/2000/svg">
<path d="M8 36C8 33.8783 8.84285 31.8434 10.3431 30.3431C11.8434 28.8429 13.8783 28 16 28H32C34.1217 28 36.1566 28.8429 37.6569 30.3431C39.1571 31.8434 40 33.8783 40 36C40 37.0609 39.5786 38.0783 38.8284 38.8284C38.0783 39.5786 37.0609 40 36 40H12C10.9391 40 9.92172 39.5786 9.17157 38.8284C8.42143 38.0783 8 37.0609 8 36Z" stroke="#4D4D4D" stroke-width="3" stroke-linejoin="round"/>
<path d="M24 20C27.3137 20 30 17.3137 30 14C30 10.6863 27.3137 8 24 8C20.6863 8 18 10.6863 18 14C18 17.3137 20.6863 20 24 20Z" stroke="#4D4D4D" stroke-width="3"/>
<path d="M11.164 55.288C11.164 55.776 11.052 56.224 10.828 56.632C10.604 57.032 10.26 57.356 9.796 57.604C9.332 57.852 8.756 57.976 8.068 57.976H6.796V61H4.744V52.576H8.068C8.74 52.576 9.308 52.692 9.772 52.924C10.236 53.156 10.584 53.476 10.816 53.884C11.048 54.292 11.164 54.76 11.164 55.288ZM7.912 56.344C8.304 56.344 8.596 56.252 8.788 56.068C8.98 55.884 9.076 55.624 9.076 55.288C9.076 54.952 8.98 54.692 8.788 54.508C8.596 54.324 8.304 54.232 7.912 54.232H6.796V56.344H7.912ZM14.2843 55.42C14.5243 55.052 14.8243 54.764 15.1843 54.556C15.5443 54.34 15.9443 54.232 16.3843 54.232V56.404H15.8203C15.3083 56.404 14.9243 56.516 14.6683 56.74C14.4123 56.956 14.2843 57.34 14.2843 57.892V61H12.2323V54.304H14.2843V55.42ZM20.4131 61.096C19.7571 61.096 19.1651 60.956 18.6371 60.676C18.1171 60.396 17.7051 59.996 17.4011 59.476C17.1051 58.956 16.9571 58.348 16.9571 57.652C16.9571 56.964 17.1091 56.36 17.4131 55.84C17.7171 55.312 18.1331 54.908 18.6611 54.628C19.1891 54.348 19.7811 54.208 20.4371 54.208C21.0931 54.208 21.6851 54.348 22.2131 54.628C22.7411 54.908 23.1571 55.312 23.4611 55.84C23.7651 56.36 23.9171 56.964 23.9171 57.652C23.9171 58.34 23.7611 58.948 23.4491 59.476C23.1451 59.996 22.7251 60.396 22.1891 60.676C21.6611 60.956 21.0691 61.096 20.4131 61.096ZM20.4131 59.32C20.8051 59.32 21.1371 59.176 21.4091 58.888C21.6891 58.6 21.8291 58.188 21.8291 57.652C21.8291 57.116 21.6931 56.704 21.4211 56.416C21.1571 56.128 20.8291 55.984 20.4371 55.984C20.0371 55.984 19.7051 56.128 19.4411 56.416C19.1771 56.696 19.0451 57.108 19.0451 57.652C19.0451 58.188 19.1731 58.6 19.4291 58.888C19.6931 59.176 20.0211 59.32 20.4131 59.32ZM28.3657 56.008H27.2617V61H25.2097V56.008H24.4657V54.304H25.2097V54.112C25.2097 53.288 25.4457 52.664 25.9177 52.24C26.3897 51.808 27.0817 51.592 27.9937 51.592C28.1457 51.592 28.2577 51.596 28.3297 51.604V53.344C27.9377 53.32 27.6617 53.376 27.5017 53.512C27.3417 53.648 27.2617 53.892 27.2617 54.244V54.304H28.3657V56.008ZM30.3619 53.608C30.0019 53.608 29.7059 53.504 29.4739 53.296C29.2499 53.08 29.1379 52.816 29.1379 52.504C29.1379 52.184 29.2499 51.92 29.4739 51.712C29.7059 51.496 30.0019 51.388 30.3619 51.388C30.7139 51.388 31.0019 51.496 31.2259 51.712C31.4579 51.92 31.5739 52.184 31.5739 52.504C31.5739 52.816 31.4579 53.08 31.2259 53.296C31.0019 53.504 30.7139 53.608 30.3619 53.608ZM31.3819 54.304V61H29.3299V54.304H31.3819ZM34.921 52.12V61H32.869V52.12H34.921ZM42.7201 57.544C42.7201 57.736 42.7081 57.936 42.6841 58.144H38.0401C38.0721 58.56 38.2041 58.88 38.4361 59.104C38.6761 59.32 38.9681 59.428 39.3121 59.428C39.8241 59.428 40.1801 59.212 40.3801 58.78H42.5641C42.4521 59.22 42.2481 59.616 41.9521 59.968C41.6641 60.32 41.3001 60.596 40.8601 60.796C40.4201 60.996 39.9281 61.096 39.3841 61.096C38.7281 61.096 38.1441 60.956 37.6321 60.676C37.1201 60.396 36.7201 59.996 36.4321 59.476C36.1441 58.956 36.0001 58.348 36.0001 57.652C36.0001 56.956 36.1401 56.348 36.4201 55.828C36.7081 55.308 37.1081 54.908 37.6201 54.628C38.1321 54.348 38.7201 54.208 39.3841 54.208C40.0321 54.208 40.6081 54.344 41.1121 54.616C41.6161 54.888 42.0081 55.276 42.2881 55.78C42.5761 56.284 42.7201 56.872 42.7201 57.544ZM40.6201 57.004C40.6201 56.652 40.5001 56.372 40.2601 56.164C40.0201 55.956 39.7201 55.852 39.3601 55.852C39.0161 55.852 38.7241 55.952 38.4841 56.152C38.2521 56.352 38.1081 56.636 38.0521 57.004H40.6201Z" fill="#4D4D4D"/>
</svg>
