<svg width="50" height="66" viewBox="0 0 50 66" fill="none" xmlns="http://www.w3.org/2000/svg">
<path d="M4.08888 61.084C3.47288 61.084 2.92088 60.984 2.43288 60.784C1.94488 60.584 1.55288 60.288 1.25688 59.896C0.968875 59.504 0.816875 59.032 0.800875 58.48H2.98488C3.01688 58.792 3.12488 59.032 3.30888 59.2C3.49288 59.36 3.73288 59.44 4.02888 59.44C4.33288 59.44 4.57288 59.372 4.74888 59.236C4.92488 59.092 5.01288 58.896 5.01288 58.648C5.01288 58.44 4.94088 58.268 4.79688 58.132C4.66088 57.996 4.48888 57.884 4.28088 57.796C4.08088 57.708 3.79288 57.608 3.41688 57.496C2.87288 57.328 2.42888 57.16 2.08488 56.992C1.74088 56.824 1.44488 56.576 1.19688 56.248C0.948875 55.92 0.824875 55.492 0.824875 54.964C0.824875 54.18 1.10888 53.568 1.67688 53.128C2.24488 52.68 2.98488 52.456 3.89688 52.456C4.82488 52.456 5.57288 52.68 6.14088 53.128C6.70888 53.568 7.01288 54.184 7.05288 54.976H4.83288C4.81688 54.704 4.71688 54.492 4.53288 54.34C4.34888 54.18 4.11288 54.1 3.82487 54.1C3.57688 54.1 3.37688 54.168 3.22488 54.304C3.07288 54.432 2.99688 54.62 2.99688 54.868C2.99688 55.14 3.12488 55.352 3.38087 55.504C3.63688 55.656 4.03688 55.82 4.58088 55.996C5.12488 56.18 5.56488 56.356 5.90088 56.524C6.24488 56.692 6.54088 56.936 6.78888 57.256C7.03688 57.576 7.16088 57.988 7.16088 58.492C7.16088 58.972 7.03688 59.408 6.78888 59.8C6.54888 60.192 6.19688 60.504 5.73288 60.736C5.26888 60.968 4.72088 61.084 4.08888 61.084ZM15.0357 54.304V61H12.9837V60.088C12.7757 60.384 12.4917 60.624 12.1317 60.808C11.7797 60.984 11.3877 61.072 10.9557 61.072C10.4437 61.072 9.99169 60.96 9.59969 60.736C9.20769 60.504 8.90369 60.172 8.68769 59.74C8.47169 59.308 8.36369 58.8 8.36369 58.216V54.304H10.4037V57.94C10.4037 58.388 10.5197 58.736 10.7517 58.984C10.9837 59.232 11.2957 59.356 11.6877 59.356C12.0877 59.356 12.4037 59.232 12.6357 58.984C12.8677 58.736 12.9837 58.388 12.9837 57.94V54.304H15.0357ZM18.5616 55.252C18.7616 54.94 19.0376 54.688 19.3896 54.496C19.7416 54.304 20.1536 54.208 20.6256 54.208C21.1776 54.208 21.6776 54.348 22.1256 54.628C22.5736 54.908 22.9256 55.308 23.1816 55.828C23.4456 56.348 23.5776 56.952 23.5776 57.64C23.5776 58.328 23.4456 58.936 23.1816 59.464C22.9256 59.984 22.5736 60.388 22.1256 60.676C21.6776 60.956 21.1776 61.096 20.6256 61.096C20.1616 61.096 19.7496 61 19.3896 60.808C19.0376 60.616 18.7616 60.368 18.5616 60.064V64.192H16.5096V54.304H18.5616V55.252ZM21.4896 57.64C21.4896 57.128 21.3456 56.728 21.0576 56.44C20.7776 56.144 20.4296 55.996 20.0136 55.996C19.6056 55.996 19.2576 56.144 18.9696 56.44C18.6896 56.736 18.5496 57.14 18.5496 57.652C18.5496 58.164 18.6896 58.568 18.9696 58.864C19.2576 59.16 19.6056 59.308 20.0136 59.308C20.4216 59.308 20.7696 59.16 21.0576 58.864C21.3456 58.56 21.4896 58.152 21.4896 57.64ZM26.7062 55.252C26.9062 54.94 27.1822 54.688 27.5342 54.496C27.8862 54.304 28.2982 54.208 28.7702 54.208C29.3222 54.208 29.8222 54.348 30.2702 54.628C30.7182 54.908 31.0702 55.308 31.3262 55.828C31.5902 56.348 31.7222 56.952 31.7222 57.64C31.7222 58.328 31.5902 58.936 31.3262 59.464C31.0702 59.984 30.7182 60.388 30.2702 60.676C29.8222 60.956 29.3222 61.096 28.7702 61.096C28.3062 61.096 27.8942 61 27.5342 60.808C27.1822 60.616 26.9062 60.368 26.7062 60.064V64.192H24.6542V54.304H26.7062V55.252ZM29.6342 57.64C29.6342 57.128 29.4902 56.728 29.2022 56.44C28.9222 56.144 28.5742 55.996 28.1582 55.996C27.7502 55.996 27.4022 56.144 27.1142 56.44C26.8342 56.736 26.6942 57.14 26.6942 57.652C26.6942 58.164 26.8342 58.568 27.1142 58.864C27.4022 59.16 27.7502 59.308 28.1582 59.308C28.5662 59.308 28.9142 59.16 29.2022 58.864C29.4902 58.56 29.6342 58.152 29.6342 57.64ZM35.8467 61.096C35.1907 61.096 34.5987 60.956 34.0707 60.676C33.5507 60.396 33.1387 59.996 32.8347 59.476C32.5387 58.956 32.3907 58.348 32.3907 57.652C32.3907 56.964 32.5427 56.36 32.8467 55.84C33.1507 55.312 33.5667 54.908 34.0947 54.628C34.6227 54.348 35.2147 54.208 35.8707 54.208C36.5267 54.208 37.1187 54.348 37.6467 54.628C38.1747 54.908 38.5907 55.312 38.8947 55.84C39.1987 56.36 39.3507 56.964 39.3507 57.652C39.3507 58.34 39.1947 58.948 38.8827 59.476C38.5787 59.996 38.1587 60.396 37.6227 60.676C37.0947 60.956 36.5027 61.096 35.8467 61.096ZM35.8467 59.32C36.2387 59.32 36.5707 59.176 36.8427 58.888C37.1227 58.6 37.2627 58.188 37.2627 57.652C37.2627 57.116 37.1267 56.704 36.8547 56.416C36.5907 56.128 36.2627 55.984 35.8707 55.984C35.4707 55.984 35.1387 56.128 34.8747 56.416C34.6107 56.696 34.4787 57.108 34.4787 57.652C34.4787 58.188 34.6067 58.6 34.8627 58.888C35.1267 59.176 35.4547 59.32 35.8467 59.32ZM42.4913 55.42C42.7313 55.052 43.0313 54.764 43.3913 54.556C43.7513 54.34 44.1513 54.232 44.5913 54.232V56.404H44.0273C43.5153 56.404 43.1313 56.516 42.8753 56.74C42.6193 56.956 42.4913 57.34 42.4913 57.892V61H40.4393V54.304H42.4913V55.42ZM49.3041 59.26V61H48.2601C47.5161 61 46.9361 60.82 46.5201 60.46C46.1041 60.092 45.8961 59.496 45.8961 58.672V56.008H45.0801V54.304H45.8961V52.672H47.9481V54.304H49.2921V56.008H47.9481V58.696C47.9481 58.896 47.9961 59.04 48.0921 59.128C48.1881 59.216 48.3481 59.26 48.5721 59.26H49.3041Z" fill="#4D4D4D"/>
<path d="M25 4C13.972 4 5 12.972 5 24V32.286C5 34.334 6.794 36 9 36H11C11.5304 36 12.0391 35.7893 12.4142 35.4142C12.7893 35.0391 13 34.5304 13 34V23.714C13 23.1836 12.7893 22.6749 12.4142 22.2998C12.0391 21.9247 11.5304 21.714 11 21.714H9.184C10.296 13.974 16.956 8 25 8C33.044 8 39.704 13.974 40.816 21.714H39C38.4696 21.714 37.9609 21.9247 37.5858 22.2998C37.2107 22.6749 37 23.1836 37 23.714V36C37 38.206 35.206 40 33 40H29V38H21V44H33C37.412 44 41 40.412 41 36C43.206 36 45 34.334 45 32.286V24C45 12.972 36.028 4 25 4Z" fill="#4D4D4D"/>
</svg>
