<svg width="48" height="66" viewBox="0 0 48 66" fill="none" xmlns="http://www.w3.org/2000/svg">
<path d="M40.0002 19.9996C40.0002 19.4691 39.7895 18.9604 39.4144 18.5854C39.0393 18.2103 38.5306 17.9996 38.0002 17.9996C37.4697 17.9996 36.961 18.2103 36.5859 18.5854C36.2109 18.9604 36.0002 19.4691 36.0002 19.9996H40.0002ZM12.0002 19.9996C12.0002 19.4691 11.7894 18.9604 11.4144 18.5854C11.0393 18.2103 10.5306 17.9996 10.0002 17.9996C9.46973 17.9996 8.96102 18.2103 8.58595 18.5854C8.21088 18.9604 8.00016 19.4691 8.00016 19.9996H12.0002ZM40.5862 25.4136C40.9634 25.7779 41.4686 25.9795 41.993 25.9749C42.5174 25.9704 43.019 25.76 43.3898 25.3892C43.7606 25.0184 43.971 24.5168 43.9755 23.9924C43.9801 23.468 43.7785 22.9628 43.4142 22.5856L40.5862 25.4136ZM24.0002 5.99957L25.4142 4.58557C25.0391 4.21063 24.5305 4 24.0002 4C23.4698 4 22.9612 4.21063 22.5862 4.58557L24.0002 5.99957ZM4.58616 22.5856C4.39514 22.7701 4.24278 22.9908 4.13796 23.2348C4.03314 23.4788 3.97797 23.7412 3.97566 24.0068C3.97335 24.2723 4.02396 24.5357 4.12452 24.7815C4.22508 25.0273 4.37359 25.2506 4.56137 25.4384C4.74916 25.6261 4.97246 25.7747 5.21825 25.8752C5.46405 25.9758 5.72741 26.0264 5.99296 26.0241C6.25852 26.0218 6.52096 25.9666 6.76497 25.8618C7.00898 25.757 7.22967 25.6046 7.41416 25.4136L4.58616 22.5856ZM14.0002 43.9996H34.0002V39.9996H14.0002V43.9996ZM40.0002 37.9996V19.9996H36.0002V37.9996H40.0002ZM12.0002 37.9996V19.9996H8.00016V37.9996H12.0002ZM43.4142 22.5856L25.4142 4.58557L22.5862 7.41357L40.5862 25.4136L43.4142 22.5856ZM22.5862 4.58557L4.58616 22.5856L7.41416 25.4136L25.4142 7.41357L22.5862 4.58557ZM34.0002 43.9996C35.5915 43.9996 37.1176 43.3674 38.2428 42.2422C39.368 41.117 40.0002 39.5909 40.0002 37.9996H36.0002C36.0002 38.53 35.7894 39.0387 35.4144 39.4138C35.0393 39.7889 34.5306 39.9996 34.0002 39.9996V43.9996ZM14.0002 39.9996C13.4697 39.9996 12.961 39.7889 12.5859 39.4138C12.2109 39.0387 12.0002 38.53 12.0002 37.9996H8.00016C8.00016 39.5909 8.6323 41.117 9.75752 42.2422C10.8827 43.3674 12.4089 43.9996 14.0002 43.9996V39.9996Z" fill="#4D4D4D"/>
<path d="M14.04 52.576V61H11.988V57.532H8.796V61H6.744V52.576H8.796V55.876H11.988V52.576H14.04ZM18.5693 61.096C17.9133 61.096 17.3213 60.956 16.7933 60.676C16.2733 60.396 15.8613 59.996 15.5573 59.476C15.2613 58.956 15.1133 58.348 15.1133 57.652C15.1133 56.964 15.2653 56.36 15.5693 55.84C15.8733 55.312 16.2893 54.908 16.8173 54.628C17.3453 54.348 17.9373 54.208 18.5933 54.208C19.2493 54.208 19.8413 54.348 20.3693 54.628C20.8973 54.908 21.3133 55.312 21.6173 55.84C21.9213 56.36 22.0733 56.964 22.0733 57.652C22.0733 58.34 21.9173 58.948 21.6053 59.476C21.3013 59.996 20.8813 60.396 20.3453 60.676C19.8173 60.956 19.2253 61.096 18.5693 61.096ZM18.5693 59.32C18.9613 59.32 19.2933 59.176 19.5653 58.888C19.8453 58.6 19.9853 58.188 19.9853 57.652C19.9853 57.116 19.8493 56.704 19.5773 56.416C19.3133 56.128 18.9853 55.984 18.5933 55.984C18.1933 55.984 17.8613 56.128 17.5973 56.416C17.3333 56.696 17.2013 57.108 17.2013 57.652C17.2013 58.188 17.3293 58.6 17.5853 58.888C17.8493 59.176 18.1773 59.32 18.5693 59.32ZM31.706 54.232C32.538 54.232 33.198 54.484 33.686 54.988C34.182 55.492 34.43 56.192 34.43 57.088V61H32.39V57.364C32.39 56.932 32.274 56.6 32.042 56.368C31.818 56.128 31.506 56.008 31.106 56.008C30.706 56.008 30.39 56.128 30.158 56.368C29.934 56.6 29.822 56.932 29.822 57.364V61H27.782V57.364C27.782 56.932 27.666 56.6 27.434 56.368C27.21 56.128 26.898 56.008 26.498 56.008C26.098 56.008 25.782 56.128 25.55 56.368C25.326 56.6 25.214 56.932 25.214 57.364V61H23.162V54.304H25.214V55.144C25.422 54.864 25.694 54.644 26.03 54.484C26.366 54.316 26.746 54.232 27.17 54.232C27.674 54.232 28.122 54.34 28.514 54.556C28.914 54.772 29.226 55.08 29.45 55.48C29.682 55.112 29.998 54.812 30.398 54.58C30.798 54.348 31.234 54.232 31.706 54.232ZM42.1771 57.544C42.1771 57.736 42.1651 57.936 42.1411 58.144H37.4971C37.5291 58.56 37.6611 58.88 37.8931 59.104C38.1331 59.32 38.4251 59.428 38.7691 59.428C39.2811 59.428 39.6371 59.212 39.8371 58.78H42.0211C41.9091 59.22 41.7051 59.616 41.4091 59.968C41.1211 60.32 40.7571 60.596 40.3171 60.796C39.8771 60.996 39.3851 61.096 38.8411 61.096C38.1851 61.096 37.6011 60.956 37.0891 60.676C36.5771 60.396 36.1771 59.996 35.8891 59.476C35.6011 58.956 35.4571 58.348 35.4571 57.652C35.4571 56.956 35.5971 56.348 35.8771 55.828C36.1651 55.308 36.5651 54.908 37.0771 54.628C37.5891 54.348 38.1771 54.208 38.8411 54.208C39.4891 54.208 40.0651 54.344 40.5691 54.616C41.0731 54.888 41.4651 55.276 41.7451 55.78C42.0331 56.284 42.1771 56.872 42.1771 57.544ZM40.0771 57.004C40.0771 56.652 39.9571 56.372 39.7171 56.164C39.4771 55.956 39.1771 55.852 38.8171 55.852C38.4731 55.852 38.1811 55.952 37.9411 56.152C37.7091 56.352 37.5651 56.636 37.5091 57.004H40.0771Z" fill="#4D4D4D"/>
</svg>
