<svg width="48" height="66" viewBox="0 0 48 66" fill="none" xmlns="http://www.w3.org/2000/svg">
<path d="M24 28.5402L21.28 26.0002C18.1352 23.0824 14.2211 21.1254 10 20.3602V34.2602C15.22 34.9402 20 36.9402 24 39.9002C28 36.9402 32.78 34.9402 38 34.2602V20.3602C33.68 21.1402 29.82 23.1402 26.72 26.0002M38 16.3002C39.3 16.1002 40.64 16.0002 42 16.0002V38.0002C35 38.0002 28.72 40.7002 24 45.0802C19.28 40.7002 13 38.0002 6 38.0002V16.0002C7.36 16.0002 8.7 16.1002 10 16.3002C15.38 17.1202 20.2 19.5602 24 23.0802C27.8 19.5602 32.62 17.1202 38 16.3002ZM24 12.0002C24.54 12.0002 25 11.8002 25.42 11.4202C25.8 11.0002 26 10.5402 26 10.0002C26 9.46017 25.8 9.00017 25.42 8.58017C25 8.22017 24.54 8.00017 24 8.00017C23.46 8.00017 23 8.22017 22.58 8.58017C22.22 9.00017 22 9.48017 22 10.0002C22 10.5202 22.22 11.0002 22.58 11.4202C23 11.8002 23.48 12.0002 24 12.0002ZM28.24 14.2402C27.1155 15.3647 25.5903 15.9964 24 15.9964C22.4097 15.9964 20.8845 15.3647 19.76 14.2402C18.6355 13.1157 18.0037 11.5905 18.0037 10.0002C18.0037 8.40986 18.6355 6.88469 19.76 5.76017C20.3168 5.20337 20.9778 4.76169 21.7053 4.46034C22.4328 4.159 23.2126 4.00391 24 4.00391C24.7874 4.00391 25.5672 4.159 26.2947 4.46034C27.0222 4.76169 27.6832 5.20337 28.24 5.76017C28.7968 6.31698 29.2385 6.978 29.5398 7.7055C29.8412 8.433 29.9963 9.21273 29.9963 10.0002C29.9963 10.7876 29.8412 11.5673 29.5398 12.2948C29.2385 13.0223 28.7968 13.6834 28.24 14.2402Z" fill="#4D4D4D"/>
<path d="M4.796 59.416H7.484V61H2.744V52.576H4.796V59.416ZM9.49475 53.608C9.13475 53.608 8.83875 53.504 8.60675 53.296C8.38275 53.08 8.27075 52.816 8.27075 52.504C8.27075 52.184 8.38275 51.92 8.60675 51.712C8.83875 51.496 9.13475 51.388 9.49475 51.388C9.84675 51.388 10.1348 51.496 10.3588 51.712C10.5908 51.92 10.7068 52.184 10.7068 52.504C10.7068 52.816 10.5908 53.08 10.3588 53.296C10.1348 53.504 9.84675 53.608 9.49475 53.608ZM10.5148 54.304V61H8.46275V54.304H10.5148ZM14.0538 55.252C14.2458 54.94 14.5218 54.688 14.8818 54.496C15.2418 54.304 15.6538 54.208 16.1178 54.208C16.6698 54.208 17.1698 54.348 17.6178 54.628C18.0658 54.908 18.4178 55.308 18.6738 55.828C18.9378 56.348 19.0698 56.952 19.0698 57.64C19.0698 58.328 18.9378 58.936 18.6738 59.464C18.4178 59.984 18.0658 60.388 17.6178 60.676C17.1698 60.956 16.6698 61.096 16.1178 61.096C15.6458 61.096 15.2338 61.004 14.8818 60.82C14.5298 60.628 14.2538 60.376 14.0538 60.064V61H12.0018V52.12H14.0538V55.252ZM16.9818 57.64C16.9818 57.128 16.8378 56.728 16.5498 56.44C16.2698 56.144 15.9218 55.996 15.5058 55.996C15.0978 55.996 14.7498 56.144 14.4618 56.44C14.1818 56.736 14.0418 57.14 14.0418 57.652C14.0418 58.164 14.1818 58.568 14.4618 58.864C14.7498 59.16 15.0978 59.308 15.5058 59.308C15.9138 59.308 16.2618 59.16 16.5498 58.864C16.8378 58.56 16.9818 58.152 16.9818 57.64ZM22.1983 55.42C22.4383 55.052 22.7383 54.764 23.0983 54.556C23.4583 54.34 23.8583 54.232 24.2983 54.232V56.404H23.7343C23.2223 56.404 22.8383 56.516 22.5823 56.74C22.3263 56.956 22.1983 57.34 22.1983 57.892V61H20.1463V54.304H22.1983V55.42ZM24.8712 57.64C24.8712 56.952 24.9992 56.348 25.2552 55.828C25.5192 55.308 25.8752 54.908 26.3232 54.628C26.7712 54.348 27.2712 54.208 27.8232 54.208C28.2952 54.208 28.7072 54.304 29.0592 54.496C29.4192 54.688 29.6952 54.94 29.8872 55.252V54.304H31.9392V61H29.8872V60.052C29.6872 60.364 29.4072 60.616 29.0472 60.808C28.6952 61 28.2832 61.096 27.8112 61.096C27.2672 61.096 26.7712 60.956 26.3232 60.676C25.8752 60.388 25.5192 59.984 25.2552 59.464C24.9992 58.936 24.8712 58.328 24.8712 57.64ZM29.8872 57.652C29.8872 57.14 29.7432 56.736 29.4552 56.44C29.1752 56.144 28.8312 55.996 28.4232 55.996C28.0152 55.996 27.6672 56.144 27.3792 56.44C27.0992 56.728 26.9592 57.128 26.9592 57.64C26.9592 58.152 27.0992 58.56 27.3792 58.864C27.6672 59.16 28.0152 59.308 28.4232 59.308C28.8312 59.308 29.1752 59.16 29.4552 58.864C29.7432 58.568 29.8872 58.164 29.8872 57.652ZM35.4757 55.42C35.7157 55.052 36.0157 54.764 36.3757 54.556C36.7357 54.34 37.1357 54.232 37.5757 54.232V56.404H37.0117C36.4997 56.404 36.1157 56.516 35.8597 56.74C35.6037 56.956 35.4757 57.34 35.4757 57.892V61H33.4237V54.304H35.4757V55.42ZM45.3965 54.304L41.1965 64.18H38.9885L40.5245 60.772L37.8005 54.304H40.0925L41.6405 58.492L43.1765 54.304H45.3965Z" fill="#4D4D4D"/>
</svg>
