<?xml version="1.0" encoding="UTF-8"?>
<svg id="Layer_1" data-name="Layer 1" xmlns="http://www.w3.org/2000/svg" viewBox="0 0 800 950">
  <defs>
    <style>
      .cls-1 {
        fill: #147ff6;
      }

      .cls-2 {
        fill: #2b83ed;
        isolation: isolate;
      }
    </style>
  </defs>
  <path class="cls-2" d="M410.97,716.29c-1.23-6.02-6.95-10.32-12.61-9.6-5.08.64-9.9,4.35-10.89,10.24-2.96,17.65-2.33,40.87,12.01,41.34,14.47.46,15.05-24.54,11.49-41.98ZM411.72,620.72c-.46-7.39-5.31-12.58-12.37-12.87-6.04-.25-12.3,5.57-12.46,12.43l-.68,31.17c-.16,6.99-.17,13.88,3.02,20.24,2.71,5.43,8.13,7.62,13.68,6.1,4.72-1.29,8.31-5.9,8.9-12.09,1.41-14.81.85-30-.09-44.98ZM410.75,516.26c-.92-6.96-7.62-9.77-13.41-9.18-6,.61-10.19,6.42-10.34,13.04l-.87,39.56c-.15,6.9,1.21,14.34,7.7,18.65,4.13,2.74,9.51,1.82,12.86-.91,8.64-7.05,6.4-43.4,4.06-61.16ZM411.56,429.77c-.45-7.61-4.1-13.6-12.07-13.61-5.71,0-12.37,4.08-12.45,11.57l-.39,36.86c-.03,3.32,2.07,7.15,4.05,10.01,3.11,4.47,8.8,4.66,12.83,3.55,11.42-3.13,9.06-31.02,8.03-48.38ZM398.73,230.08l-48.96,107.99,36.46-11.96.21,44.81c.04,8.32,4.4,17.39,13.25,17.98,10.42.7,12.62-10.06,12.69-23.17l.23-40.7c11.77,4.11,21.7,10.84,34.18,12.19l-48.06-107.14ZM786.9,784.37l-64.86-137.84-64.26-134.97-175.59-372.63-52.17-110.62c-2.6-5.51-9.51-6.99-13.46-5.53-5.1,1.89-8.13,7.05-6.47,12.86,4.02,14.03,9.11,26.99,14.58,40.62l34.63,86.3,66.11,159.85,71.05,172.91,77.55,190.65,26.29,64.47-16.12-2.57-89.44-220.88-77.12-187.38-104.68-252.05-26.03-59.01c-1.56-3.53-4.99-5.78-8.14-6.05-3.17-.27-7.52.85-9.36,4.76l-123.88,262.32-47.83,102.59L60.79,684.09l-47.69,101.41c-1.78,3.77-.21,8.63,2.26,10.41,2.45,1.77,5.67,2.32,9.34,1.45l125.9-29.82,190.43-45.38c2.37-.57,5.81-4.5,4.01-5.41-5.98-3.04-12.91-2.1-18.97-1.35l-73.75,9.05-89.09,12.42-33.15,5.15,69.81-169.74L391.25,114.95l111.22,263.69,43.87,106.67,103.44,255.24c-53.36-9.35-105.28-16.31-158-22.62-12.95-1.55-24.64-3.78-37.49-2.67-2.09.36-3.19,2.99-2.37,4.27.5.79,2.19,2.35,4.08,2.81l86.82,21.27,154.76,36.3,76.97,17.22c4.17.93,8.36.62,10.74-2.11,1.97-2.26,3.28-7.1,1.61-10.65ZM212.29,460.93l-27.34,68.96-87.56,218.66c-5.56-.12-9.54,1.28-14.91,3.15l30.5-72.54,41.54-97.14,19.84-45.82,51.53-117.06c.78-1.76,2.46-3.38,3.58-4.57-4.59,16.23-11.01,30.79-17.18,46.36Z"/>
  <g>
    <path class="cls-1" d="M86.31,909.87h-36.31l-5.81,17.19h-24.81l35.21-97.27h27.44l35.19,97.27h-25.08l-5.81-17.19ZM80.21,891.58l-12.04-35.6-11.92,35.6h23.96Z"/>
    <path class="cls-1" d="M123.85,878.29c0-9.61,2.07-18.18,6.23-25.71,4.17-7.53,9.96-13.39,17.4-17.58,7.44-4.21,15.88-6.31,25.29-6.31,11.55,0,21.44,3.05,29.67,9.15,8.22,6.1,13.71,14.41,16.48,24.94h-26.04c-1.95-4.07-4.7-7.17-8.25-9.29-3.56-2.13-7.6-3.19-12.13-3.19-7.29,0-13.2,2.54-17.73,7.63-4.53,5.08-6.79,11.88-6.79,20.38s2.26,15.29,6.79,20.38c4.53,5.07,10.44,7.6,17.73,7.6,4.53,0,8.57-1.06,12.13-3.19,3.55-2.13,6.3-5.21,8.25-9.27h26.04c-2.77,10.53-8.26,18.82-16.48,24.88-8.22,6.04-18.11,9.06-29.67,9.06-9.42,0-17.85-2.09-25.29-6.29-7.43-4.21-13.23-10.05-17.4-17.52-4.16-7.48-6.23-16.03-6.23-25.65Z"/>
    <path class="cls-1" d="M283.05,927.06l-20.23-36.73h-5.67v36.73h-23.71v-97.27h39.77c7.67,0,14.2,1.34,19.6,4.02,5.4,2.68,9.44,6.35,12.13,11.02,2.68,4.67,4.02,9.86,4.02,15.58,0,6.46-1.83,12.23-5.48,17.31-3.64,5.08-9.02,8.69-16.13,10.81l22.44,38.52h-26.75ZM257.16,873.58h14.69c4.33,0,7.58-1.06,9.75-3.19,2.18-2.13,3.27-5.13,3.27-9.02s-1.09-6.6-3.27-8.73c-2.17-2.13-5.42-3.19-9.75-3.19h-14.69v24.13Z"/>
    <path class="cls-1" d="M384.35,909.87h-36.31l-5.81,17.19h-24.81l35.21-97.27h27.44l35.19,97.27h-25.08l-5.81-17.19ZM378.25,891.58l-12.04-35.6-11.92,35.6h23.96Z"/>
    <path class="cls-1" d="M500.05,861.1c0,5.64-1.3,10.79-3.9,15.46-2.58,4.67-6.56,8.43-11.92,11.29-5.35,2.86-11.99,4.29-19.94,4.29h-14.69v34.92h-23.71v-97.27h38.4c7.75,0,14.3,1.34,19.67,4.02,5.36,2.68,9.38,6.38,12.06,11.08,2.68,4.71,4.02,10.11,4.02,16.21ZM462.49,873.29c4.53,0,7.9-1.06,10.1-3.19,2.22-2.13,3.33-5.13,3.33-9s-1.11-6.88-3.33-9c-2.21-2.13-5.58-3.19-10.1-3.19h-12.88v24.38h12.88Z"/>
    <path class="cls-1" d="M572.93,909.87h-36.31l-5.81,17.19h-24.81l35.21-97.27h27.44l35.19,97.27h-25.08l-5.81-17.19ZM566.83,891.58l-12.04-35.6-11.92,35.6h23.96Z"/>
    <path class="cls-1" d="M684.47,829.79v18.98h-25.77v78.29h-23.69v-78.29h-25.77v-18.98h75.23Z"/>
    <path class="cls-1" d="M780.63,829.79v97.27h-23.69v-40.04h-36.85v40.04h-23.71v-97.27h23.71v38.1h36.85v-38.1h23.69Z"/>
  </g>
</svg>