<svg xmlns="http://www.w3.org/2000/svg" viewBox="0 0 32 32" id="bag">
  <g id="Layer_2" fill="#4d4d4d" class="color000000 svgShape">
    <path d="M27,6H22V5a2,2,0,0,0-2-2H12a2,2,0,0,0-2,2V6H5A3,3,0,0,0,2,9V26a3,3,0,0,0,3,3H27a3,3,0,0,0,3-3V9A3,3,0,0,0,27,6ZM12,5h8V6H12ZM28,26a1,1,0,0,1-1,1H5a1,1,0,0,1-1-1V14.414l.122.122A4.966,4.966,0,0,0,7.657,16H24.343a4.966,4.966,0,0,0,3.535-1.464L28,14.414Zm0-14.414-1.536,1.536A3.02,3.02,0,0,1,24.343,14H7.657a3.02,3.02,0,0,1-2.121-.878L4,11.586V9A1,1,0,0,1,5,8H27a1,1,0,0,1,1,1ZM20,11a1,1,0,0,1-1,1H13a1,1,0,0,1,0-2h6A1,1,0,0,1,20,11Z" fill="#4d4d4d" class="color000000 svgShape"></path>
  </g>
</svg>
