<svg xmlns="http://www.w3.org/2000/svg" viewBox="0 0 512 512" id="Location">
  <path d="M256,487.076c-12.591,0-23.947-5.921-31.156-16.246-8.329-11.931-17.607-24.981-27.43-38.798-40.19-56.531-85.743-120.605-102.629-158.636-14.34-32.298-18.675-67.872-12.538-102.876,6.287-35.859,23.181-68.383,48.856-94.059,33.235-33.235,77.591-51.538,124.896-51.538s91.661,18.303,124.896,51.538c25.675,25.675,42.57,58.2,48.857,94.059,6.138,35.005,1.802,70.579-12.538,102.876-16.887,38.032-62.443,102.11-102.636,158.646-9.82,13.813-19.096,26.861-27.423,38.788-7.209,10.325-18.565,16.246-31.157,16.246Zm0-432.153c-39.292,0-76.114,15.183-103.683,42.751-42.552,42.552-54.653,108.277-30.113,163.548,15.663,35.276,62.237,100.788,99.661,153.427,9.861,13.871,19.176,26.973,27.578,39.008,1.628,2.333,3.712,3.419,6.558,3.419s4.93-1.086,6.559-3.419c8.4-12.032,17.712-25.13,27.571-38.998,37.425-52.643,84.002-118.158,99.667-153.437,24.541-55.271,12.439-120.996-30.113-163.548-27.569-27.568-64.391-42.751-103.684-42.751Zm0,239.098c-23.741,0-47.481-9.037-65.554-27.11-17.51-17.51-27.153-40.791-27.153-65.554s9.645-48.044,27.153-65.554h0c17.51-17.511,40.792-27.154,65.555-27.154s48.044,9.643,65.554,27.154c36.146,36.146,36.146,94.961,0,131.108-18.074,18.073-41.814,27.11-65.555,27.11Zm0-155.372c-16.75,0-32.497,6.522-44.341,18.367h0c-11.844,11.844-18.367,27.591-18.367,44.341s6.523,32.498,18.367,44.341c12.224,12.223,28.285,18.335,44.341,18.337,16.06,.001,32.115-6.111,44.341-18.337,24.449-24.45,24.449-64.232,0-88.682-11.844-11.844-27.592-18.367-44.341-18.367Z" fill="#4d4d4d" class="color000000 svgShape"></path>
</svg>
