<svg width="16" height="16" viewBox="0 0 16 16" fill="none" xmlns="http://www.w3.org/2000/svg">
<path fill-rule="evenodd" clip-rule="evenodd" d="M11.937 0.676125C11.7781 0.422243 11.5441 0.224216 11.2674 0.109609C10.9907 -0.00499827 10.6851 -0.0304829 10.3933 0.0367031L8.32192 0.512525C8.10964 0.561319 7.88906 0.561319 7.67678 0.512525L5.60542 0.0367031C5.31357 -0.0304829 5.00803 -0.00499827 4.73134 0.109609C4.45465 0.224216 4.22057 0.422243 4.06169 0.676125L2.93269 2.47803C2.81749 2.66237 2.66196 2.8179 2.47764 2.93426L0.67585 4.06333C0.422423 4.22208 0.224698 4.4558 0.110123 4.73203C-0.00445152 5.00827 -0.030194 5.31333 0.0364693 5.60486L0.512261 7.67866C0.560875 7.89058 0.560875 8.11077 0.512261 8.32269L0.0364693 10.3953C-0.030453 10.687 -0.00484016 10.9923 0.109747 11.2688C0.224334 11.5453 0.422204 11.7792 0.67585 11.938L2.47764 13.0671C2.66196 13.1823 2.81749 13.3378 2.93384 13.5222L4.06284 15.3241C4.38771 15.8437 5.00751 16.1006 5.60542 15.9635L7.67678 15.4877C7.88906 15.4389 8.10964 15.4389 8.32192 15.4877L10.3944 15.9635C10.6861 16.0304 10.9914 16.0048 11.2679 15.8902C11.5443 15.7756 11.7782 15.5777 11.937 15.3241L13.066 13.5222C13.1812 13.3378 13.3367 13.1823 13.5211 13.0671L15.324 11.938C15.5777 11.779 15.7754 11.5448 15.8898 11.2681C16.0042 10.9914 16.0295 10.6859 15.9622 10.3942L15.4876 8.32269C15.4388 8.1104 15.4388 7.8898 15.4876 7.67751L15.9634 5.60486C16.0304 5.31328 16.005 5.00806 15.8906 4.7316C15.7762 4.45514 15.5786 4.22116 15.3252 4.06218L13.5222 2.93311C13.3382 2.81769 13.1826 2.66211 13.0672 2.47803L11.937 0.676125ZM11.3575 5.43089C11.4288 5.29986 11.4465 5.14629 11.4068 5.0025C11.3671 4.85872 11.2732 4.73592 11.1449 4.65995C11.0165 4.58398 10.8637 4.56075 10.7186 4.59517C10.5735 4.62958 10.4474 4.71895 10.3668 4.84447L7.35421 9.94371L5.53514 8.20172C5.48118 8.14631 5.41661 8.10233 5.34528 8.07241C5.27395 8.04249 5.19733 8.02725 5.11998 8.02758C5.04263 8.02792 4.96614 8.04383 4.89508 8.07437C4.82401 8.10491 4.75983 8.14945 4.70635 8.20533C4.65287 8.26122 4.61119 8.3273 4.5838 8.39964C4.55641 8.47198 4.54387 8.5491 4.54692 8.62639C4.54998 8.70368 4.56857 8.77957 4.60158 8.84952C4.6346 8.91947 4.68136 8.98206 4.73909 9.03354L7.08233 11.279C7.14505 11.339 7.2205 11.384 7.30305 11.4107C7.38561 11.4374 7.47314 11.4452 7.55909 11.4333C7.64505 11.4215 7.72722 11.3903 7.79947 11.3423C7.87171 11.2942 7.93216 11.2304 7.97631 11.1557L11.3575 5.43089Z" fill="#008F5C"/>
</svg>
