<svg width="26" height="18" viewBox="0 0 26 18" fill="none" xmlns="http://www.w3.org/2000/svg">
<path d="M12.8333 5.25C13.7616 5.25 14.6518 5.61875 15.3082 6.27513C15.9646 6.9315 16.3333 7.82174 16.3333 8.75C16.3333 9.67826 15.9646 10.5685 15.3082 11.2249C14.6518 11.8813 13.7616 12.25 12.8333 12.25C11.9051 12.25 11.0148 11.8813 10.3585 11.2249C9.70208 10.5685 9.33333 9.67826 9.33333 8.75C9.33333 7.82174 9.70208 6.9315 10.3585 6.27513C11.0148 5.61875 11.9051 5.25 12.8333 5.25ZM12.8333 0C18.6667 0 23.6483 3.62833 25.6667 8.75C23.6483 13.8717 18.6667 17.5 12.8333 17.5C7 17.5 2.01833 13.8717 0 8.75C2.01833 3.62833 7 0 12.8333 0ZM2.54333 8.75C3.4863 10.6754 4.95052 12.2975 6.76956 13.4321C8.58859 14.5667 10.6895 15.1682 12.8333 15.1682C14.9772 15.1682 17.0781 14.5667 18.8971 13.4321C20.7161 12.2975 22.1804 10.6754 23.1233 8.75C22.1804 6.82464 20.7161 5.20246 18.8971 4.06787C17.0781 2.93328 14.9772 2.33179 12.8333 2.33179C10.6895 2.33179 8.58859 2.93328 6.76956 4.06787C4.95052 5.20246 3.4863 6.82464 2.54333 8.75Z" fill="#147FF6"/>
</svg>
