<svg width="3" height="15" viewBox="0 0 3 15" fill="none" xmlns="http://www.w3.org/2000/svg">
<path d="M0 1.5C0 1.29 -1.55065e-07 1.1865 0.0119998 1.0995C0.0501813 0.824562 0.177043 0.569595 0.373319 0.373319C0.569595 0.177043 0.824562 0.0501813 1.0995 0.0119998C1.185 -1.55065e-07 1.29 0 1.5 0C1.71 0 1.8135 -1.55065e-07 1.9005 0.0119998C2.17544 0.0501813 2.4304 0.177043 2.62668 0.373319C2.82296 0.569595 2.94982 0.824562 2.988 1.0995C3 1.185 3 1.29 3 1.5C3 1.71 3 1.8135 2.988 1.9005C2.94982 2.17544 2.82296 2.4304 2.62668 2.62668C2.4304 2.82296 2.17544 2.94982 1.9005 2.988C1.815 3 1.71 3 1.5 3C1.29 3 1.1865 3 1.0995 2.988C0.824562 2.94982 0.569595 2.82296 0.373319 2.62668C0.177043 2.4304 0.0501813 2.17544 0.0119998 1.9005C-1.55065e-07 1.815 0 1.71 0 1.5ZM0 7.5C0 7.29 -1.55065e-07 7.1865 0.0119998 7.0995C0.0501813 6.82456 0.177043 6.5696 0.373319 6.37332C0.569595 6.17704 0.824562 6.05018 1.0995 6.012C1.185 6 1.29 6 1.5 6C1.71 6 1.8135 6 1.9005 6.012C2.17544 6.05018 2.4304 6.17704 2.62668 6.37332C2.82296 6.5696 2.94982 6.82456 2.988 7.0995C3 7.185 3 7.29 3 7.5C3 7.71 3 7.8135 2.988 7.9005C2.94982 8.17544 2.82296 8.4304 2.62668 8.62668C2.4304 8.82296 2.17544 8.94982 1.9005 8.988C1.815 9 1.71 9 1.5 9C1.29 9 1.1865 9 1.0995 8.988C0.824562 8.94982 0.569595 8.82296 0.373319 8.62668C0.177043 8.4304 0.0501813 8.17544 0.0119998 7.9005C-1.55065e-07 7.815 0 7.71 0 7.5ZM0 13.5C0 13.2915 -1.55065e-07 13.1865 0.0119998 13.0995C0.0504049 12.8251 0.177181 12.5706 0.373135 12.3746C0.56909 12.1787 0.823553 12.0519 1.098 12.0135C1.1865 12.0015 1.29 12.0015 1.4985 12.0015C1.707 12.0015 1.8135 12.0015 1.899 12.0135C2.17345 12.0519 2.42791 12.1787 2.62386 12.3746C2.81982 12.5706 2.94659 12.8251 2.985 13.0995C2.997 13.1865 2.997 13.2915 2.997 13.5C2.997 13.7085 2.997 13.8135 2.985 13.9005C2.94659 14.1749 2.81982 14.4294 2.62386 14.6254C2.42791 14.8213 2.17345 14.9481 1.899 14.9865C1.812 14.9985 1.707 14.9985 1.4985 14.9985C1.29 14.9985 1.185 14.9985 1.098 14.9865C0.823553 14.9481 0.56909 14.8213 0.373135 14.6254C0.177181 14.4294 0.0504049 14.1749 0.0119998 13.9005C-1.55065e-07 13.8135 0 13.7085 0 13.5Z" fill="black"/>
</svg>
