<svg width="15" height="12" viewBox="0 0 15 12" fill="none" xmlns="http://www.w3.org/2000/svg">
<path fill-rule="evenodd" clip-rule="evenodd" d="M0.182783 6.08233C0.0657411 5.96514 -2.39318e-07 5.80629 -2.46558e-07 5.64066C-2.53798e-07 5.47503 0.0657411 5.31618 0.182783 5.19899L5.18278 0.198993C5.24 0.137587 5.309 0.0883358 5.38567 0.0541751C5.46233 0.0200155 5.5451 0.00164771 5.62901 0.000167601C5.71293 -0.00131346 5.79629 0.0141237 5.87411 0.0455577C5.95194 0.0769918 6.02263 0.123779 6.08198 0.183128C6.14133 0.242477 6.18812 0.313172 6.21955 0.390996C6.25099 0.468819 6.26642 0.552176 6.26494 0.636095C6.26346 0.720014 6.24509 0.802776 6.21093 0.879442C6.17677 0.956109 6.12752 1.02511 6.06612 1.08233L2.13278 5.01566L13.9578 5.01566C14.1235 5.01566 14.2825 5.08151 14.3997 5.19872C14.5169 5.31593 14.5828 5.4749 14.5828 5.64066C14.5828 5.80642 14.5169 5.96539 14.3997 6.0826C14.2825 6.19981 14.1235 6.26566 13.9578 6.26566L2.13278 6.26566L6.06612 10.199C6.12752 10.2562 6.17677 10.3252 6.21093 10.4019C6.24509 10.4785 6.26346 10.5613 6.26494 10.6452C6.26642 10.7291 6.25099 10.8125 6.21955 10.8903C6.18812 10.9681 6.14133 11.0388 6.08198 11.0982C6.02263 11.1575 5.95194 11.2043 5.87411 11.2358C5.79629 11.2672 5.71293 11.2826 5.62901 11.2812C5.5451 11.2797 5.46233 11.2613 5.38567 11.2271C5.309 11.193 5.24 11.1437 5.18278 11.0823L0.182783 6.08233Z" fill="black"/>
</svg>
