<svg width="18" height="13" viewBox="0 0 18 13" fill="none" xmlns="http://www.w3.org/2000/svg">
<path fill-rule="evenodd" clip-rule="evenodd" d="M17.46 0.307562C17.9638 0.752812 18.0109 1.52306 17.5656 2.03006L8.22188 12.5926C8.11398 12.7146 7.98271 12.8137 7.83583 12.8841C7.68896 12.9545 7.52946 12.9948 7.36676 13.0025C7.20406 13.0103 7.04146 12.9853 6.88858 12.9291C6.73569 12.8729 6.59562 12.7867 6.47663 12.6754L0.382884 6.98794C0.148457 6.76701 0.0110272 6.46226 0.000635101 6.14031C-0.00975702 5.81835 0.107734 5.50537 0.327426 5.26979C0.547118 5.0342 0.851141 4.89518 1.17304 4.88309C1.49494 4.87101 1.80853 4.98686 2.04526 5.20531L7.22901 10.0316L15.744 0.411562C15.8502 0.291464 15.979 0.193489 16.1231 0.123247C16.2672 0.0530051 16.4237 0.011876 16.5837 0.00221543C16.7437 -0.00744512 16.904 0.0145528 17.0555 0.0669488C17.207 0.119345 17.3467 0.20111 17.4665 0.307562H17.46Z" fill="#F7FCFE"/>
</svg>
