<svg width="14" height="13" viewBox="0 0 14 13" fill="none" xmlns="http://www.w3.org/2000/svg">
<path fill-rule="evenodd" clip-rule="evenodd" d="M3.46513 2.44906V1.5632C3.46523 1.24598 3.5772 0.93932 3.78067 0.698958C3.98415 0.458595 4.26563 0.300481 4.57396 0.253351L5.48187 0.114794C6.48837 -0.0382647 7.51163 -0.0382647 8.51813 0.114794L9.42604 0.253351C9.73437 0.300481 10.0159 0.458595 10.2193 0.698958C10.4228 0.93932 10.5348 1.24598 10.5349 1.5632V2.44906L11.8104 2.55354C12.285 2.59255 12.733 2.79232 13.0828 3.12091C13.4326 3.44951 13.664 3.88795 13.7401 4.36613C14.0866 6.54108 14.0866 8.75862 13.7401 10.9336C13.664 11.4117 13.4326 11.8502 13.0828 12.1788C12.733 12.5074 12.285 12.7071 11.8104 12.7462L10.4173 12.8597C8.1428 13.0468 5.8572 13.0468 3.58271 12.8597L2.1896 12.7462C1.71504 12.7071 1.26703 12.5074 0.91721 12.1788C0.567392 11.8502 0.335967 11.4117 0.259936 10.9336C-0.0866455 8.75862 -0.0866455 6.54108 0.259936 4.36613C0.336118 3.88809 0.567609 3.44982 0.917414 3.12137C1.26722 2.79293 1.71514 2.59327 2.1896 2.5543L3.46513 2.44906ZM5.64782 1.23763C6.5443 1.1014 7.4557 1.1014 8.35218 1.23763L9.26008 1.37619C9.30413 1.3829 9.34435 1.40546 9.37344 1.43977C9.40253 1.47409 9.41855 1.51789 9.41859 1.5632V2.36956C7.80751 2.27594 6.19249 2.27594 4.58141 2.36956V1.56244C4.58145 1.51713 4.59747 1.47333 4.62656 1.43902C4.65565 1.4047 4.69587 1.38214 4.73992 1.37543L5.64782 1.23763ZM3.67276 3.57114C5.88745 3.38942 8.11255 3.38942 10.3272 3.57114L11.7204 3.68622C11.9461 3.7046 12.1593 3.79948 12.3258 3.95569C12.4922 4.11189 12.6024 4.3204 12.6387 4.54785C12.6848 4.83909 12.7245 5.13135 12.7577 5.42461C10.9664 6.32166 8.99655 6.78817 7 6.78817C5.00345 6.78817 3.03357 6.32166 1.24226 5.42461C1.275 5.13185 1.31469 4.8396 1.36133 4.54785C1.39757 4.3204 1.50775 4.11189 1.67424 3.95569C1.84073 3.79948 2.0539 3.7046 2.27965 3.68622L3.67276 3.57114ZM1.14254 6.63301C2.98207 7.48378 4.97932 7.92396 7 7.92396C9.02068 7.92396 11.0179 7.48378 12.8575 6.63301C12.9287 8.00996 12.8554 9.39073 12.6387 10.7518C12.6026 10.9794 12.4925 11.1881 12.326 11.3445C12.1595 11.5008 11.9462 11.5958 11.7204 11.6142L10.3272 11.7278C8.11255 11.9095 5.88745 11.9095 3.67276 11.7278L2.27965 11.6142C2.05379 11.5958 1.84054 11.5008 1.67404 11.3445C1.50754 11.1881 1.39742 10.9794 1.36133 10.7518C1.14477 9.389 1.0711 8.00797 1.14254 6.63301Z" fill="#666666"/>
</svg>
