<svg width="18" height="25" viewBox="0 0 18 25" fill="none" xmlns="http://www.w3.org/2000/svg">
<path d="M3.375 4.54545H14.625V6.81818H16.875V2.27273C16.875 1.02273 15.8625 0.0113636 14.625 0.0113636L3.375 0C2.1375 0 1.125 1.02273 1.125 2.27273V6.81818H3.375V4.54545ZM12.8363 17.7159L18 12.5L12.8363 7.28409L11.25 8.89773L14.8162 12.5L11.25 16.1023L12.8363 17.7159ZM6.75 16.1023L3.18375 12.5L6.75 8.89773L5.16375 7.28409L0 12.5L5.16375 17.7159L6.75 16.1023ZM14.625 20.4545H3.375V18.1818H1.125V22.7273C1.125 23.9773 2.1375 25 3.375 25H14.625C15.8625 25 16.875 23.9773 16.875 22.7273V18.1818H14.625V20.4545Z" fill="#4D4D4D"/>
</svg>
