<svg width="13" height="13" viewBox="0 0 13 13" fill="none" xmlns="http://www.w3.org/2000/svg">
<path d="M10.8098 0C11.3832 0 11.9331 0.227778 12.3385 0.633224C12.744 1.03867 12.9718 1.58857 12.9718 2.16196V10.8098C12.9718 11.3832 12.744 11.9331 12.3385 12.3385C11.9331 12.744 11.3832 12.9718 10.8098 12.9718H2.16196C1.58857 12.9718 1.03867 12.744 0.633224 12.3385C0.227778 11.9331 0 11.3832 0 10.8098V2.16196C0 1.58857 0.227778 1.03867 0.633224 0.633224C1.03867 0.227778 1.58857 0 2.16196 0H10.8098ZM10.8098 1.44131H2.16196C1.97083 1.44131 1.78753 1.51723 1.65238 1.65238C1.51723 1.78753 1.44131 1.97083 1.44131 2.16196V10.8098C1.44131 11.0009 1.51723 11.1842 1.65238 11.3194C1.78753 11.4545 1.97083 11.5305 2.16196 11.5305H10.8098C11.0009 11.5305 11.1842 11.4545 11.3194 11.3194C11.4545 11.1842 11.5305 11.0009 11.5305 10.8098V2.16196C11.5305 1.97083 11.4545 1.78753 11.3194 1.65238C11.1842 1.51723 11.0009 1.44131 10.8098 1.44131ZM3.60327 5.04458C3.77978 5.0446 3.95015 5.10941 4.08205 5.2267C4.21396 5.34399 4.29823 5.50562 4.31888 5.68092L4.32392 5.76523V9.3685C4.32372 9.55218 4.25339 9.72885 4.1273 9.86242C4.0012 9.99598 3.82887 10.0764 3.6455 10.0871C3.46214 10.0979 3.28158 10.0382 3.14073 9.92033C2.99988 9.80244 2.90935 9.63521 2.88766 9.45282L2.88262 9.3685V5.76523C2.88262 5.5741 2.95854 5.3908 3.09369 5.25565C3.22884 5.1205 3.41214 5.04458 3.60327 5.04458ZM5.76523 4.32392C5.93401 4.3239 6.09743 4.38311 6.22702 4.49123C6.35661 4.59936 6.44415 4.74953 6.47436 4.91558C6.61951 4.83175 6.76942 4.75644 6.92332 4.69002C7.404 4.48463 8.12393 4.37149 8.77396 4.57543C9.11483 4.68353 9.45714 4.88531 9.71081 5.22907C9.93782 5.53534 10.0603 5.90792 10.0848 6.32662L10.0892 6.48589V9.3685C10.089 9.55218 10.0186 9.72885 9.89253 9.86242C9.76643 9.99598 9.5941 10.0764 9.41074 10.0871C9.22737 10.0979 9.04682 10.0382 8.90596 9.92033C8.76511 9.80244 8.67459 9.63521 8.65289 9.45282L8.64785 9.3685V6.48589C8.64785 6.24807 8.5902 6.13709 8.55272 6.08592C8.49886 6.01909 8.42477 5.97155 8.34157 5.95044C8.09078 5.87117 7.72973 5.91297 7.48976 6.0153C7.12943 6.16952 6.79937 6.41166 6.57453 6.63578L6.48589 6.73091V9.3685C6.48568 9.55218 6.41535 9.72885 6.28926 9.86242C6.16316 9.99598 5.99083 10.0764 5.80747 10.0871C5.6241 10.0979 5.44355 10.0382 5.30269 9.92033C5.16184 9.80244 5.07132 9.63521 5.04962 9.45282L5.04458 9.3685V5.04458C5.04458 4.85345 5.1205 4.67015 5.25565 4.535C5.3908 4.39985 5.5741 4.32392 5.76523 4.32392ZM3.60327 2.88262C3.7944 2.88262 3.9777 2.95854 4.11285 3.09369C4.248 3.22884 4.32392 3.41214 4.32392 3.60327C4.32392 3.7944 4.248 3.9777 4.11285 4.11285C3.9777 4.248 3.7944 4.32392 3.60327 4.32392C3.41214 4.32392 3.22884 4.248 3.09369 4.11285C2.95854 3.9777 2.88262 3.7944 2.88262 3.60327C2.88262 3.41214 2.95854 3.22884 3.09369 3.09369C3.22884 2.95854 3.41214 2.88262 3.60327 2.88262Z" fill="#4D4D4D"/>
</svg>
