<svg width="15" height="17" viewBox="0 0 15 17" fill="none" xmlns="http://www.w3.org/2000/svg">
<path d="M2.72204 2.67443C3.98915 1.43267 5.69512 0.741126 7.46923 0.750086C9.24334 0.759046 10.9422 1.46778 12.1967 2.72229C13.4512 3.97679 14.16 5.67568 14.1689 7.44979C14.1779 9.22391 13.4864 10.9299 12.2446 12.197L8.68554 15.756C8.36666 16.0748 7.93422 16.2539 7.48332 16.2539C7.03242 16.2539 6.59998 16.0748 6.2811 15.756L2.72204 12.197C1.45936 10.9342 0.75 9.2215 0.75 7.43571C0.75 5.64991 1.45936 3.93725 2.72204 2.67443Z" stroke="#666666" stroke-width="1.5" stroke-linejoin="round"/>
<path d="M7.4833 9.98711C8.892 9.98711 10.034 8.84513 10.034 7.43642C10.034 6.02772 8.892 4.88574 7.4833 4.88574C6.0746 4.88574 4.93262 6.02772 4.93262 7.43642C4.93262 8.84513 6.0746 9.98711 7.4833 9.98711Z" stroke="#666666" stroke-width="1.5" stroke-linecap="round" stroke-linejoin="round"/>
</svg>
