<svg width="13" height="12" viewBox="0 0 13 12" fill="none" xmlns="http://www.w3.org/2000/svg">
<path d="M8.91928 8.19944L9.22325 7.90559L8.51732 7.21541L8.21468 7.50926L8.91928 8.19944ZM10.2425 7.78235L11.5164 8.45631L11.993 7.60137L10.7198 6.92805L10.2425 7.78235ZM11.761 9.79516L10.8144 10.7117L11.519 11.4013L12.4656 10.4853L11.761 9.79516ZM10.2372 11.0062C9.27058 11.0944 6.77082 11.0159 4.06307 8.39663L3.35781 9.08616C6.31219 11.9448 9.1246 12.0849 10.3305 11.9753L10.2372 11.0062ZM4.06307 8.39663C1.48265 5.89927 1.05469 3.79954 1.00136 2.88816L0.0027868 2.9433C0.0694472 4.09014 0.599398 6.41755 3.35781 9.08616L4.06307 8.39663ZM4.97965 4.38788L5.17097 4.20236L4.46703 3.51283L4.27572 3.6977L4.97965 4.38788ZM5.32295 1.84446L4.48303 0.752109L3.68244 1.33591L4.52236 2.42761L5.32295 1.84446ZM1.65596 0.514049L0.609397 1.52597L1.31466 2.21615L2.36057 1.20423L1.65596 0.514049ZM4.62769 4.04279C4.27439 3.6977 4.27439 3.6977 4.27439 3.699H4.27305L4.27105 3.70159C4.23937 3.73267 4.21101 3.76679 4.18639 3.80343C4.1504 3.85533 4.11107 3.92344 4.07774 4.00971C3.9966 4.23241 3.97638 4.47182 4.01908 4.70443C4.1084 5.26552 4.5057 6.00695 5.52294 6.99162L6.2282 6.30144C5.27563 5.38034 5.04898 4.81989 5.00698 4.55524C4.98699 4.42939 5.00765 4.36712 5.01365 4.35285C5.01765 4.3442 5.01765 4.34291 5.01365 4.34896C5.00771 4.35791 5.00102 4.36637 4.99365 4.37426L4.98699 4.38074L4.98032 4.38658L4.62769 4.04279ZM5.52294 6.99162C6.54084 7.9763 7.30677 8.36031 7.88405 8.44593C8.17935 8.49004 8.41733 8.45501 8.59798 8.3895C8.69917 8.35348 8.79371 8.30179 8.87795 8.23641L8.91128 8.20722L8.91595 8.20333L8.91795 8.20138L8.91862 8.20009C8.91862 8.20009 8.91928 8.19944 8.56665 7.85435C8.21335 7.50926 8.21535 7.50861 8.21535 7.50861L8.21668 7.50731L8.21802 7.50601L8.22202 7.50277L8.22868 7.49628L8.25401 7.47683C8.26023 7.47293 8.25868 7.47337 8.24935 7.47812C8.23268 7.48396 8.16735 7.50407 8.03603 7.48461C7.76006 7.44309 7.18011 7.22255 6.2282 6.30144L5.52294 6.99162ZM4.48303 0.751461C3.8031 -0.130725 2.46722 -0.270836 1.65596 0.514049L2.36057 1.20423C2.7152 0.861085 3.34447 0.896762 3.68244 1.33591L4.48303 0.751461ZM1.00203 2.88881C0.988694 2.66438 1.09468 2.42956 1.31466 2.2168L0.60873 1.52662C0.250764 1.873 -0.03121 2.36339 0.0027868 2.9433L1.00203 2.88881ZM10.8144 10.7117C10.6318 10.8895 10.4345 10.9893 10.2378 11.0069L10.3305 11.9753C10.8204 11.9306 11.2211 11.6906 11.5197 11.4019L10.8144 10.7117ZM5.17097 4.20236C5.82757 3.56732 5.87624 2.56383 5.32362 1.84511L4.52303 2.42826C4.79167 2.77789 4.75167 3.2365 4.46637 3.51348L5.17097 4.20236ZM11.517 8.45696C12.0617 8.74497 12.1463 9.42347 11.7617 9.7958L12.467 10.4853C13.3602 9.62067 13.0849 8.17868 11.9937 7.60202L11.517 8.45696ZM9.22325 7.90624C9.47923 7.65845 9.89119 7.59748 10.2432 7.78299L10.7204 6.9287C9.99785 6.54599 9.10193 6.65172 8.51799 7.21606L9.22325 7.90624Z" fill="#4D4D4D"/>
</svg>
