<svg width="13" height="13" viewBox="0 0 13 13" fill="none" xmlns="http://www.w3.org/2000/svg">
<path d="M1 10.625C1 9.89565 1.28973 9.19618 1.80546 8.68046C2.32118 8.16473 3.02065 7.875 3.75 7.875H9.25C9.97935 7.875 10.6788 8.16473 11.1945 8.68046C11.7103 9.19618 12 9.89565 12 10.625C12 10.9897 11.8551 11.3394 11.5973 11.5973C11.3394 11.8551 10.9897 12 10.625 12H2.375C2.01033 12 1.66059 11.8551 1.40273 11.5973C1.14487 11.3394 1 10.9897 1 10.625Z" stroke="black" stroke-width="2" stroke-linejoin="round"/>
<path d="M6.5 5.125C7.63909 5.125 8.5625 4.20159 8.5625 3.0625C8.5625 1.92341 7.63909 1 6.5 1C5.36091 1 4.4375 1.92341 4.4375 3.0625C4.4375 4.20159 5.36091 5.125 6.5 5.125Z" stroke="black" stroke-width="2"/>
</svg>
