<svg width="13" height="13" viewBox="0 0 13 13" fill="none" xmlns="http://www.w3.org/2000/svg">
<path d="M11.1055 1.89153C10.5065 1.2897 9.79313 0.812511 9.00692 0.487769C8.2207 0.163028 7.37739 -0.00277105 6.52613 3.50317e-05C2.9593 3.50317e-05 0.0522614 2.89253 0.0522614 6.44152C0.0522614 7.57901 0.352764 8.68401 0.914573 9.65901L0 13L3.42965 12.103C4.37688 12.6165 5.44171 12.8895 6.52613 12.8895C10.093 12.8895 13 9.99701 13 6.44802C13 4.72552 12.3271 3.10703 11.1055 1.89153ZM6.52613 11.7975C5.5593 11.7975 4.61206 11.5375 3.78241 11.05L3.58643 10.933L1.54824 11.466L2.09045 9.49001L1.9598 9.28851C1.42252 8.4351 1.13729 7.44854 1.13668 6.44152C1.13668 3.49053 3.55377 1.08553 6.5196 1.08553C7.95678 1.08553 9.30904 1.64453 10.3216 2.65853C10.8231 3.15504 11.2205 3.74568 11.4907 4.39619C11.761 5.0467 11.8987 5.74412 11.896 6.44802C11.909 9.39901 9.49196 11.7975 6.52613 11.7975ZM9.47889 7.79351C9.31558 7.71551 8.51859 7.32552 8.37487 7.26702C8.22462 7.21502 8.1201 7.18902 8.00904 7.34502C7.89799 7.50752 7.59095 7.87151 7.4995 7.97551C7.40804 8.08601 7.31005 8.09901 7.14673 8.01451C6.98342 7.93651 6.4608 7.76101 5.84673 7.21502C5.36332 6.78602 5.04322 6.25952 4.94523 6.09702C4.85377 5.93452 4.93216 5.85002 5.01709 5.76552C5.08894 5.69402 5.1804 5.57702 5.25879 5.48602C5.33719 5.39502 5.36985 5.32352 5.42211 5.21952C5.47437 5.10902 5.44824 5.01802 5.40904 4.94002C5.36985 4.86202 5.04322 4.06902 4.91256 3.74402C4.78191 3.43203 4.64472 3.47103 4.54673 3.46453H4.23317C4.12211 3.46453 3.95226 3.50353 3.80201 3.66603C3.65829 3.82852 3.2402 4.21852 3.2402 5.01152C3.2402 5.80452 3.82161 6.57152 3.9 6.67552C3.97839 6.78602 5.04322 8.41101 6.66332 9.10651C7.04874 9.27551 7.34925 9.37301 7.58442 9.44451C7.96985 9.56801 8.32261 9.54851 8.60352 9.50951C8.91709 9.46401 9.56382 9.11951 9.69447 8.74251C9.83166 8.36551 9.83166 8.04701 9.78593 7.97551C9.7402 7.90401 9.64221 7.87151 9.47889 7.79351Z" fill="black"/>
</svg>
