<svg width="34" height="25" viewBox="0 0 34 25" fill="none" xmlns="http://www.w3.org/2000/svg">
<path d="M30.1725 8.69203C28.6073 7.83984 26.5036 7.22672 24.1875 6.93844V5.90625C24.1875 4.20188 22.8403 2.65781 20.3906 1.55672C18.1631 0.552656 15.2156 0 12.0938 0C8.97188 0 6.02437 0.552656 3.79688 1.55672C1.34719 2.65781 0 4.20188 0 5.90625V11.5312C0 13.2356 1.34719 14.7797 3.79688 15.8808C5.27203 16.5445 7.06078 17.0058 9 17.2491V18.2812C9 19.9856 10.3472 21.5297 12.7969 22.6308C15.0244 23.6348 17.9719 24.1875 21.0938 24.1875C24.2156 24.1875 27.1631 23.6348 29.3906 22.6308C31.8361 21.5297 33.1875 19.9856 33.1875 18.2812V12.6562C33.1875 11.1586 32.1173 9.75094 30.1725 8.69203ZM29.3653 10.1742C30.742 10.9237 31.5 11.8125 31.5 12.6562C31.5 14.6517 27.2264 16.875 21.0938 16.875C20.0965 16.8756 19.1003 16.8126 18.1111 16.6866C18.8906 16.4773 19.6528 16.2079 20.3906 15.8808C22.8361 14.7797 24.1875 13.2356 24.1875 11.5312V8.63859C26.2125 8.91 28.0266 9.44438 29.3653 10.1742ZM13.8038 15.6909C13.2525 15.7289 12.6788 15.75 12.0938 15.75C11.3484 15.75 10.6313 15.7163 9.945 15.6558C9.92769 15.6542 9.91028 15.6542 9.89297 15.6558C9.38953 15.6094 8.90859 15.5475 8.4375 15.473V11.5481C9.64815 11.7255 10.8702 11.8139 12.0938 11.8125C13.3173 11.8139 14.5393 11.7255 15.75 11.5481V15.4688C15.1397 15.5658 14.497 15.6403 13.8248 15.6881L13.8038 15.6909ZM22.5 8.98453V11.5312C22.5 12.8728 20.5664 14.3156 17.4375 15.1186V11.2289C18.4508 11.0001 19.4398 10.6743 20.3906 10.2558C21.1469 9.92732 21.8563 9.49983 22.5 8.98453ZM12.0938 1.6875C18.2264 1.6875 22.5 3.91078 22.5 5.90625C22.5 7.90172 18.2264 10.125 12.0938 10.125C5.96109 10.125 1.6875 7.90172 1.6875 5.90625C1.6875 3.91078 5.96109 1.6875 12.0938 1.6875ZM1.6875 11.5312V8.98453C2.33155 9.49786 3.04086 9.92345 3.79688 10.2502C4.74771 10.6686 5.73665 10.9945 6.75 11.2233V15.113C3.62109 14.3156 1.6875 12.8728 1.6875 11.5312ZM10.6875 18.2812V17.3981C11.1516 17.4234 11.6198 17.4375 12.0938 17.4375C12.6478 17.4375 13.1944 17.4202 13.7334 17.3855C14.393 17.6235 15.0664 17.8212 15.75 17.9775V21.8686C12.6211 21.0656 10.6875 19.6228 10.6875 18.2812ZM17.4375 22.2188V18.2953C18.6481 18.4736 19.8701 18.5629 21.0938 18.5625C22.3173 18.5639 23.5394 18.4755 24.75 18.2981V22.2188C22.3269 22.5938 19.8606 22.5938 17.4375 22.2188ZM26.4375 21.8686V17.9789C27.4508 17.7501 28.4398 17.4243 29.3906 17.0058C30.1466 16.6791 30.856 16.2535 31.5 15.7402V18.2812C31.5 19.6228 29.5664 21.0656 26.4375 21.8686Z" fill="#4D4D4D"/>
</svg>
