<svg width="32" height="24" viewBox="0 0 32 24" fill="none" xmlns="http://www.w3.org/2000/svg">
<path d="M29.3333 0H2.66667C1.21333 0.0533333 0.0533333 1.21333 0 2.66667V21.3333C0.0533333 22.7867 1.21333 23.9467 2.66667 24H29.3333C30.7867 23.9467 31.9467 22.7867 32 21.3333V2.66667C31.9755 1.96724 31.6866 1.30312 31.1918 0.808247C30.6969 0.31337 30.0328 0.0245406 29.3333 0ZM29.3333 21.3333H2.66667V2.66667H29.3333V21.3333ZM18.6667 18.6667V17C18.6667 14.7867 14.2133 13.6667 12 13.6667C9.78667 13.6667 5.33333 14.7867 5.33333 17V18.6667H18.6667ZM12 5.33333C11.1159 5.33333 10.2681 5.68452 9.64298 6.30964C9.01786 6.93477 8.66667 7.78261 8.66667 8.66667C8.66667 9.10441 8.75289 9.53786 8.9204 9.94228C9.08792 10.3467 9.33345 10.7142 9.64298 11.0237C10.2681 11.6488 11.1159 12 12 12C12.4377 12 12.8712 11.9138 13.2756 11.7463C13.68 11.5787 14.0475 11.3332 14.357 11.0237C14.6666 10.7142 14.9121 10.3467 15.0796 9.94228C15.2471 9.53786 15.3333 9.10441 15.3333 8.66667C15.3333 8.22893 15.2471 7.79547 15.0796 7.39106C14.9121 6.98664 14.6666 6.61917 14.357 6.30964C14.0475 6.00012 13.68 5.75458 13.2756 5.58707C12.8712 5.41955 12.4377 5.33333 12 5.33333ZM18.6667 5.33333V6.66667H26.6667V5.33333H18.6667ZM18.6667 8V9.33333H26.6667V8H18.6667ZM18.6667 10.6667V12H24V10.6667H18.6667Z" fill="black"/>
</svg>
