<svg width="14" height="17" viewBox="0 0 14 17" fill="none" xmlns="http://www.w3.org/2000/svg">
<path d="M3.25 6.58664V4.08664C3.2492 3.27475 3.54474 2.49048 4.08115 1.88103C4.61755 1.27158 5.35795 0.878857 6.16337 0.776569C6.96879 0.674281 7.78385 0.869461 8.45558 1.32548C9.1273 1.78149 9.6095 2.46699 9.81167 3.2533M6.58333 10.7533C6.80435 10.7533 7.01631 10.6655 7.17259 10.5092C7.32887 10.3529 7.41667 10.141 7.41667 9.91997C7.41667 9.69896 7.32887 9.48699 7.17259 9.33071C7.01631 9.17443 6.80435 9.08664 6.58333 9.08664C6.36232 9.08664 6.15036 9.17443 5.99408 9.33071C5.8378 9.48699 5.75 9.69896 5.75 9.91997C5.75 10.141 5.8378 10.3529 5.99408 10.5092C6.15036 10.6655 6.36232 10.7533 6.58333 10.7533ZM6.58333 10.7533V13.2533M2.08333 6.58664H11.0833C11.8167 6.58664 12.4167 7.18664 12.4167 7.91997V13.7533C12.4167 14.8533 11.5167 15.7533 10.4167 15.7533H2.75C1.65 15.7533 0.75 14.8533 0.75 13.7533V7.91997C0.75 7.18664 1.35 6.58664 2.08333 6.58664Z" stroke="#4D4D4D" stroke-width="1.5" stroke-miterlimit="10" stroke-linecap="round" stroke-linejoin="round"/>
</svg>
