<svg width="38" height="41" viewBox="0 0 38 41" fill="none" xmlns="http://www.w3.org/2000/svg">
<path d="M10 13V10C10 7.61305 10.9482 5.32387 12.636 3.63604C14.3239 1.94821 16.6131 1 19 1C21.3869 1 23.6761 1.94821 25.364 3.63604C27.0518 5.32387 28 7.61305 28 10V13M2.5 13C2.10218 13 1.72064 13.158 1.43934 13.4393C1.15804 13.7206 1 14.1022 1 14.5V34.75C1 37.585 3.415 40 6.25 40H31.75C34.585 40 37 37.7022 37 34.8672V14.5C37 14.1022 36.842 13.7206 36.5607 13.4393C36.2794 13.158 35.8978 13 35.5 13H2.5Z" stroke="#4D4D4D" stroke-width="2" stroke-linecap="round" stroke-linejoin="round"/>
</svg>
