<svg width="38" height="38" viewBox="0 0 38 38" fill="none" xmlns="http://www.w3.org/2000/svg">
<path d="M15 37V1M1 15H37M5.8 1H32.2C33.473 1 34.6939 1.50571 35.5941 2.40589C36.4943 3.30606 37 4.52696 37 5.8V32.2C37 33.473 36.4943 34.6939 35.5941 35.5941C34.6939 36.4943 33.473 37 32.2 37H5.8C4.52696 37 3.30606 36.4943 2.40589 35.5941C1.50571 34.6939 1 33.473 1 32.2V5.8C1 5.16966 1.12416 4.54548 1.36538 3.96312C1.6066 3.38076 1.96017 2.85161 2.40589 2.40589C3.30606 1.50571 4.52696 1 5.8 1Z" stroke="#4D4D4D" stroke-width="2" stroke-miterlimit="10" stroke-linecap="round" stroke-linejoin="round"/>
</svg>
