<svg width="38" height="31" viewBox="0 0 38 31" fill="none" xmlns="http://www.w3.org/2000/svg">
<path d="M35 9.59V28H2.33333V2.33333H23.9983C23.9451 1.9467 23.9178 1.55694 23.9167 1.16667C23.9174 0.775445 23.9447 0.386556 23.9983 0H2.33333C1.71449 0 1.121 0.245833 0.683417 0.683417C0.245833 1.121 0 1.71449 0 2.33333V28C0 28.6188 0.245833 29.2123 0.683417 29.6499C1.121 30.0875 1.71449 30.3333 2.33333 30.3333H35C35.6188 30.3333 36.2123 30.0875 36.6499 29.6499C37.0875 29.2123 37.3333 28.6188 37.3333 28V8.56333C36.61 9.01833 35.8237 9.36367 35 9.59Z" fill="#4D4D4D"/>
</svg>
