<svg width="52" height="58" viewBox="0 0 52 58" fill="none" xmlns="http://www.w3.org/2000/svg">
<path d="M0 8C0 5.87827 0.842855 3.84344 2.34315 2.34315C3.84344 0.842855 5.87827 0 8 0H36.8C38.9217 0 40.9566 0.842855 42.4569 2.34315C43.9571 3.84344 44.8 5.87827 44.8 8V16H41.6V8C41.6 6.72696 41.0943 5.50606 40.1941 4.60589C39.2939 3.70571 38.073 3.2 36.8 3.2H8C6.72696 3.2 5.50606 3.70571 4.60589 4.60589C3.70571 5.50606 3.2 6.72696 3.2 8V36.8C3.2 38.073 3.70571 39.2939 4.60589 40.1941C5.50606 41.0943 6.72696 41.6 8 41.6H19.2V44.8H8C5.87827 44.8 3.84344 43.9571 2.34315 42.4569C0.842855 40.9566 0 38.9217 0 36.8V8ZM11.2 16H28.8C27.4493 16 26.1139 16.2851 24.8809 16.8365C23.648 17.3879 22.5452 18.1933 21.6448 19.2H11.2C10.7757 19.2 10.3687 19.0314 10.0686 18.7314C9.76857 18.4313 9.6 18.0243 9.6 17.6C9.6 17.1757 9.76857 16.7687 10.0686 16.4686C10.3687 16.1686 10.7757 16 11.2 16ZM19.744 22.4H11.2C10.7757 22.4 10.3687 22.5686 10.0686 22.8686C9.76857 23.1687 9.6 23.5757 9.6 24C9.6 24.4243 9.76857 24.8313 10.0686 25.1314C10.3687 25.4314 10.7757 25.6 11.2 25.6H19.2C19.2 24.48 19.392 23.4016 19.744 22.4ZM11.2 9.6C10.7757 9.6 10.3687 9.76857 10.0686 10.0686C9.76857 10.3687 9.6 10.7757 9.6 11.2C9.6 11.6243 9.76857 12.0313 10.0686 12.3314C10.3687 12.6314 10.7757 12.8 11.2 12.8H33.6C34.0243 12.8 34.4313 12.6314 34.7314 12.3314C35.0314 12.0313 35.2 11.6243 35.2 11.2C35.2 10.7757 35.0314 10.3687 34.7314 10.0686C34.4313 9.76857 34.0243 9.6 33.6 9.6H11.2ZM51.2 25.6C51.2 23.9026 50.5257 22.2747 49.3255 21.0745C48.1253 19.8743 46.4974 19.2 44.8 19.2H28.8C27.1026 19.2 25.4748 19.8743 24.2745 21.0745C23.0743 22.2747 22.4 23.9026 22.4 25.6V51.2C22.4 52.8974 23.0743 54.5252 24.2745 55.7255C25.4748 56.9257 27.1026 57.6 28.8 57.6H49.6C50.0243 57.6 50.4313 57.4314 50.7314 57.1314C51.0314 56.8313 51.2 56.4243 51.2 56C51.2 55.5756 51.0314 55.1687 50.7314 54.8686C50.4313 54.5686 50.0243 54.4 49.6 54.4H28.8C27.9513 54.4 27.1374 54.0629 26.5373 53.4627C25.9371 52.8626 25.6 52.0487 25.6 51.2V51.1904H49.6C50.0243 51.1904 50.4313 51.0218 50.7314 50.7218C51.0314 50.4217 51.2 50.0147 51.2 49.5904V25.6ZM25.6 47.9904V25.6C25.6 24.7513 25.9371 23.9374 26.5373 23.3373C27.1374 22.7371 27.9513 22.4 28.8 22.4H44.8C45.6487 22.4 46.4626 22.7371 47.0627 23.3373C47.6629 23.9374 48 24.7513 48 25.6V47.9904H25.6Z" fill="#4D4D4D"/>
</svg>
