<svg width="41" height="30" viewBox="0 0 41 30" fill="none" xmlns="http://www.w3.org/2000/svg">
<path d="M38.4375 30C38.4375 30 41 30 41 27.5C41 25 38.4375 17.5 28.1875 17.5C17.9375 17.5 15.375 25 15.375 27.5C15.375 30 17.9375 30 17.9375 30H38.4375ZM17.9939 27.5L17.9375 27.49C17.9401 26.83 18.3654 24.915 19.885 23.19C21.2995 21.5725 23.7851 20 28.1875 20C32.5873 20 35.0729 21.575 36.49 23.19C38.0096 24.915 38.4324 26.8325 38.4375 27.49L38.417 27.495L38.3811 27.5H17.9939ZM28.1875 12.5C29.5467 12.5 30.8503 11.9732 31.8114 11.0355C32.7725 10.0979 33.3125 8.82608 33.3125 7.5C33.3125 6.17392 32.7725 4.90215 31.8114 3.96447C30.8503 3.02678 29.5467 2.5 28.1875 2.5C26.8283 2.5 25.5247 3.02678 24.5636 3.96447C23.6025 4.90215 23.0625 6.17392 23.0625 7.5C23.0625 8.82608 23.6025 10.0979 24.5636 11.0355C25.5247 11.9732 26.8283 12.5 28.1875 12.5ZM35.875 7.5C35.875 8.48491 35.6762 9.46018 35.2898 10.3701C34.9035 11.2801 34.3372 12.1069 33.6234 12.8033C32.9095 13.4997 32.0621 14.0522 31.1294 14.4291C30.1967 14.806 29.197 15 28.1875 15C27.178 15 26.1783 14.806 25.2456 14.4291C24.3129 14.0522 23.4655 13.4997 22.7516 12.8033C22.0378 12.1069 21.4715 11.2801 21.0852 10.3701C20.6988 9.46018 20.5 8.48491 20.5 7.5C20.5 5.51088 21.3099 3.60322 22.7516 2.1967C24.1933 0.790177 26.1486 0 28.1875 0C30.2264 0 32.1817 0.790177 33.6234 2.1967C35.0651 3.60322 35.875 5.51088 35.875 7.5ZM17.7735 18.2C16.7479 17.8873 15.6915 17.6803 14.6216 17.5825C14.0204 17.5253 13.4166 17.4978 12.8125 17.5C2.5625 17.5 0 25 0 27.5C0 29.1667 0.854167 30 2.5625 30H13.366C12.9863 29.2195 12.7969 28.3638 12.8125 27.5C12.8125 24.975 13.7786 22.395 15.6056 20.24C16.2283 19.505 16.9535 18.8175 17.7735 18.2ZM12.6075 20C11.0918 22.2236 10.2727 24.8297 10.25 27.5H2.5625C2.5625 26.85 2.98275 24.925 4.51 23.19C5.90656 21.6 8.33325 20.05 12.6075 20.0025V20ZM3.84375 8.75C3.84375 6.76088 4.65368 4.85322 6.09537 3.4467C7.53705 2.04018 9.4924 1.25 11.5312 1.25C13.5701 1.25 15.5254 2.04018 16.9671 3.4467C18.4088 4.85322 19.2188 6.76088 19.2188 8.75C19.2188 10.7391 18.4088 12.6468 16.9671 14.0533C15.5254 15.4598 13.5701 16.25 11.5312 16.25C9.4924 16.25 7.53705 15.4598 6.09537 14.0533C4.65368 12.6468 3.84375 10.7391 3.84375 8.75ZM11.5312 3.75C10.172 3.75 8.86845 4.27678 7.90733 5.21447C6.9462 6.15215 6.40625 7.42392 6.40625 8.75C6.40625 10.0761 6.9462 11.3479 7.90733 12.2855C8.86845 13.2232 10.172 13.75 11.5312 13.75C12.8905 13.75 14.194 13.2232 15.1552 12.2855C16.1163 11.3479 16.6562 10.0761 16.6562 8.75C16.6562 7.42392 16.1163 6.15215 15.1552 5.21447C14.194 4.27678 12.8905 3.75 11.5312 3.75Z" fill="#4D4D4D"/>
</svg>
